<svg width="700" height="700" viewBox="0 0 700 700" fill="none" xmlns="http://www.w3.org/2000/svg">
<rect width="700" height="700" fill="#8C30F5"/>
<path d="M317.951 399.161V361.401L286.591 307.001H304.575L325.759 343.737L346.879 307.001H364.863L333.567 361.401V399.161H317.951ZM394.079 401.081C387.167 401.081 381.129 399.523 375.967 396.409C370.804 393.294 366.793 389.006 363.935 383.545C361.119 378.041 359.711 371.726 359.711 364.601C359.711 357.347 361.161 350.99 364.063 345.529C366.964 340.067 370.996 335.801 376.159 332.729C381.321 329.657 387.295 328.121 394.079 328.121C401.033 328.121 407.092 329.678 412.255 332.793C417.417 335.907 421.428 340.217 424.287 345.721C427.145 351.182 428.575 357.475 428.575 364.601C428.575 371.769 427.124 378.105 424.223 383.609C421.364 389.07 417.353 393.358 412.191 396.473C407.028 399.545 400.991 401.081 394.079 401.081ZM394.079 386.617C400.223 386.617 404.788 384.569 407.775 380.473C410.761 376.377 412.255 371.086 412.255 364.601C412.255 357.902 410.74 352.569 407.711 348.601C404.681 344.59 400.137 342.585 394.079 342.585C389.94 342.585 386.527 343.523 383.839 345.401C381.193 347.235 379.231 349.817 377.951 353.145C376.671 356.43 376.031 360.249 376.031 364.601C376.031 371.299 377.545 376.654 380.575 380.665C383.647 384.633 388.148 386.617 394.079 386.617ZM468.596 401.145C463.476 401.145 459.252 400.291 455.924 398.585C452.596 396.878 449.95 394.702 447.988 392.057C446.025 389.411 444.574 386.595 443.636 383.609C442.697 380.622 442.078 377.806 441.78 375.161C441.524 372.473 441.396 370.297 441.396 368.633V330.041H457.012V363.321C457.012 365.454 457.161 367.865 457.46 370.553C457.758 373.198 458.441 375.758 459.508 378.233C460.617 380.665 462.238 382.67 464.372 384.249C466.548 385.827 469.47 386.617 473.14 386.617C475.102 386.617 477.044 386.297 478.964 385.657C480.884 385.017 482.612 383.929 484.148 382.393C485.726 380.814 486.985 378.659 487.924 375.929C488.862 373.198 489.332 369.742 489.332 365.561L498.484 369.465C498.484 375.353 497.332 380.686 495.028 385.465C492.766 390.243 489.417 394.062 484.98 396.921C480.542 399.737 475.081 401.145 468.596 401.145ZM491.188 399.161V377.721H489.332V330.041H504.82V399.161H491.188ZM528.817 399.161V328.953C528.817 327.203 528.881 325.283 529.009 323.193C529.137 321.059 529.499 318.947 530.097 316.857C530.694 314.766 531.782 312.867 533.361 311.161C535.323 308.985 537.435 307.491 539.697 306.681C542.001 305.827 544.262 305.358 546.481 305.273C548.699 305.145 550.641 305.081 552.305 305.081H560.945V317.625H552.945C550.001 317.625 547.803 318.371 546.353 319.865C544.945 321.315 544.241 323.235 544.241 325.625V399.161H528.817ZM517.681 342.137V330.041H560.945V342.137H517.681ZM580.264 429.881L593.576 393.337L593.832 404.089L563.688 330.041H579.752L601.128 384.825H597.032L617.832 330.041H633.256L594.728 429.881H580.264Z" fill="white"/>
<circle cx="150.309" cy="350.309" r="100.309" fill="white"/>
<path fill-rule="evenodd" clip-rule="evenodd" d="M126.691 296.05C125.977 295.524 125.029 295.444 124.237 295.848C123.447 296.252 122.948 297.073 122.948 297.97V402.642C122.948 403.539 123.447 404.359 124.237 404.764C124.571 404.935 124.937 405.021 125.299 405.021C125.791 405.021 126.28 404.866 126.691 404.562L197.221 352.226C197.826 351.776 198.181 351.062 198.181 350.306C198.181 349.549 197.826 348.836 197.221 348.386L126.691 296.05Z" fill="#8C30F5"/>
</svg>
