<?xml version="1.0" encoding="UTF-8" standalone="no"?>
<!DOCTYPE svg PUBLIC "-//W3C//DTD SVG 1.1//EN" "http://www.w3.org/Graphics/SVG/1.1/DTD/svg11.dtd">
<svg width="100%" height="100%" viewBox="0 0 1024 768" version="1.1" xmlns="http://www.w3.org/2000/svg" xmlns:xlink="http://www.w3.org/1999/xlink" xml:space="preserve" xmlns:serif="http://www.serif.com/" style="fill-rule:evenodd;clip-rule:evenodd;stroke-linejoin:round;stroke-miterlimit:2;">
    <g transform="matrix(0.875,0,0,0.875,70.1873,44.5203)">
        <path d="M832,64L192,64L192,704L832,704L832,64ZM711.747,443.222C732.434,443.222 750.45,446.632 765.795,453.452C781.14,460.272 792.905,470.047 801.089,482.778C809.273,495.508 813.365,510.626 813.365,528.131C813.365,545.408 809.273,560.469 801.089,573.313C792.905,586.157 781.14,595.99 765.795,602.81C750.45,609.63 732.434,613.04 711.747,613.04L657.869,613.04L657.869,681.922L613.539,681.922L613.539,443.222L711.747,443.222ZM520.446,681.922L471.683,612.017C469.637,612.244 466.568,612.358 462.476,612.358L408.598,612.358L408.598,681.922L364.268,681.922L364.268,443.222L462.476,443.222C483.163,443.222 501.179,446.632 516.524,453.452C531.869,460.272 543.634,470.047 551.818,482.778C560.002,495.508 564.094,510.626 564.094,528.131C564.094,546.09 559.718,561.549 550.965,574.507C542.213,587.465 529.653,597.126 513.285,603.492L568.186,681.922L520.446,681.922ZM519.423,528.131C519.423,512.899 514.422,501.192 504.419,493.008C494.416,484.824 479.753,480.732 460.43,480.732L408.598,480.732L408.598,575.871L460.43,575.871C479.753,575.871 494.416,571.722 504.419,563.424C514.422,555.126 519.423,543.362 519.423,528.131ZM709.701,575.53C729.024,575.53 743.687,571.438 753.69,563.254C763.693,555.07 768.694,543.362 768.694,528.131C768.694,512.899 763.693,501.192 753.69,493.008C743.687,484.824 729.024,480.732 709.701,480.732L657.869,480.732L657.869,575.53L709.701,575.53Z"/>
    </g>
</svg>
